<?xml version="1.0" standalone="no"?>
<!DOCTYPE svg PUBLIC "-//W3C//DTD SVG 20010904//EN"
 "http://www.w3.org/TR/2001/REC-SVG-20010904/DTD/svg10.dtd">
<svg version="1.0" xmlns="http://www.w3.org/2000/svg"
 width="190.000000pt" height="262.000000pt" viewBox="0 0 190.000000 262.000000"
 preserveAspectRatio="xMidYMid meet">
<metadata>
Created by potrace 1.16, written by Peter Selinger 2001-2019
</metadata>
<g transform="translate(0.000000,262.000000) scale(0.100000,-0.100000)"
fill="#000000" stroke="none">
<path d="M453 2608 c-22 -28 -34 -61 -64 -180 -17 -67 -40 -140 -51 -161 l-19
-38 -30 25 c-56 48 -119 27 -119 -39 0 -57 31 -75 98 -55 29 8 39 5 73 -19 50
-37 103 -47 134 -27 14 9 26 12 30 6 3 -5 22 -14 42 -19 52 -15 96 7 132 64
26 41 30 44 36 25 5 -15 0 -26 -19 -41 -56 -44 -15 -120 50 -90 14 6 28 20 31
31 3 11 24 28 48 39 27 12 56 36 75 63 30 41 32 47 28 115 -6 85 -32 133 -89
159 -32 14 -42 14 -73 3 -54 -19 -43 -49 18 -49 38 0 65 -28 82 -87 19 -66 8
-122 -29 -148 -27 -19 -57 -20 -57 -2 0 8 -13 32 -29 54 -25 35 -28 46 -21 77
6 29 4 41 -10 58 -15 19 -22 21 -45 13 -41 -15 -51 -36 -35 -75 7 -17 19 -38
27 -46 12 -12 11 -20 -5 -56 -10 -24 -25 -48 -33 -55 -25 -20 -63 -25 -84 -9
-19 14 -19 15 -2 34 30 33 49 110 37 148 -31 93 -128 4 -118 -107 5 -43 3 -49
-14 -49 -16 0 -73 24 -87 36 -2 1 6 16 18 33 28 39 48 97 72 205 21 98 45 148
60 125 16 -26 10 -71 -10 -76 -21 -5 -35 -29 -25 -44 19 -32 84 33 84 85 0 45
-34 86 -70 86 -15 0 -32 -6 -37 -12z"/>
<path d="M133 2079 c-50 -24 -85 -68 -114 -141 -18 -47 -20 -68 -17 -183 4
-142 17 -188 51 -183 16 2 28 29 62 133 23 72 54 160 68 197 22 57 24 68 11
79 -10 8 -17 9 -28 0 -15 -13 -68 -149 -95 -244 l-18 -62 -7 48 c-26 172 98
379 185 308 21 -17 24 -26 22 -83 -1 -34 -3 -76 -5 -93 -3 -28 -1 -30 33 -31
55 -2 67 -9 78 -50 13 -48 -5 -92 -51 -128 -40 -30 -92 -35 -106 -9 -12 21
-42 10 -42 -15 0 -10 9 -27 21 -38 32 -29 92 -23 146 15 24 18 42 27 39 22
-11 -17 9 -21 65 -12 50 8 56 7 80 -15 36 -34 72 -31 119 12 24 22 40 31 40
22 0 -24 39 -58 67 -58 17 0 37 13 63 41 23 26 40 37 44 30 10 -16 67 -13 91
4 12 10 30 13 51 9 43 -8 96 19 136 68 22 28 33 36 39 27 4 -8 -4 -23 -22 -40
-16 -15 -29 -37 -29 -51 0 -28 26 -68 44 -68 19 0 66 54 66 76 0 13 14 25 47
38 83 35 133 103 133 184 0 171 -94 250 -228 192 -63 -27 -92 -61 -92 -107 0
-31 2 -33 20 -23 11 6 20 18 21 28 0 9 14 28 32 42 36 29 113 34 143 9 26 -21
54 -89 54 -131 0 -70 -65 -148 -125 -148 -13 0 -52 78 -47 94 5 15 -19 64 -34
70 -26 10 -46 -23 -39 -64 10 -60 -45 -140 -96 -140 -27 0 -26 46 1 55 45 14
64 106 28 129 -23 14 -45 1 -76 -45 -19 -28 -23 -45 -21 -98 2 -53 -1 -65 -16
-74 -15 -8 -22 -5 -37 14 -22 26 -23 22 26 187 49 166 47 212 -9 212 -30 0
-60 -25 -80 -66 -14 -29 -18 -69 -20 -196 -2 -140 -5 -163 -22 -186 -27 -36
-48 -24 -63 36 -10 44 -9 54 8 88 23 45 45 171 40 229 l-3 40 -43 -1 c-72 -1
-77 -12 -79 -187 0 -84 -2 -157 -2 -163 -1 -17 -48 -64 -63 -64 -7 0 -19 4
-27 9 -11 7 -5 18 28 48 33 32 41 47 41 75 0 22 -7 41 -20 53 -17 15 -24 16
-50 5 -46 -19 -70 -56 -70 -105 0 -42 -1 -43 -44 -54 -25 -6 -47 -11 -50 -11
-3 0 3 15 14 33 13 21 20 50 20 85 0 46 -4 58 -29 83 -17 16 -40 29 -54 29
-24 0 -24 2 -16 38 15 66 -19 150 -72 178 -38 19 -66 18 -116 -7z"/>
<path d="M1542 1652 c-37 -38 -78 -76 -92 -84 l-25 -15 4 45 c3 43 -7 61 -34
62 -15 0 -45 -54 -43 -77 4 -45 -1 -52 -49 -59 -25 -4 -87 -2 -137 5 -50 6
-99 12 -110 14 -24 3 -45 -28 -30 -43 15 -15 175 -40 257 -40 l67 0 2 -105 c1
-58 2 -121 3 -141 0 -24 -6 -41 -17 -48 -24 -15 -37 1 -42 50 -3 21 -8 47 -11
57 -5 11 -2 17 6 17 9 0 10 3 4 8 -5 4 -15 16 -21 26 -16 30 -27 29 -49 -4
-24 -36 -27 -37 -40 -7 -11 23 -38 25 -63 5 -6 -6 -24 -48 -37 -93 -28 -92
-50 -115 -57 -59 -2 19 -1 39 2 45 9 14 0 59 -11 59 -5 0 -22 15 -38 32 l-29
33 -34 -17 c-44 -20 -69 -72 -73 -147 -3 -83 -40 -83 -63 1 -9 33 -7 42 21 85
42 66 64 128 73 202 6 51 4 65 -11 81 -27 30 -38 25 -74 -34 -39 -65 -67 -151
-77 -233 -6 -56 -10 -64 -68 -124 -34 -35 -83 -81 -109 -102 -26 -21 -47 -44
-47 -52 0 -8 17 -16 43 -20 23 -4 85 -24 138 -45 107 -43 200 -60 317 -60 107
0 178 15 296 62 116 45 146 63 146 83 0 22 -38 18 -99 -10 -192 -90 -470 -92
-664 -5 l-48 22 43 46 43 47 11 -30 c10 -29 44 -55 72 -55 8 0 27 14 44 31 22
21 34 27 41 20 17 -17 62 -13 90 9 22 18 26 18 38 4 31 -38 65 -2 111 121 37
96 71 80 46 -22 -8 -33 -8 -46 3 -59 11 -13 15 -11 30 21 10 20 16 42 13 49
-3 7 5 30 17 51 l23 38 8 -29 c4 -16 6 -34 3 -41 -5 -16 14 -72 34 -99 16 -22
16 -22 54 -3 35 18 39 18 68 3 24 -12 45 -14 93 -9 88 11 100 18 149 84 24 34
47 58 50 54 15 -15 6 -49 -15 -58 -31 -13 -36 -72 -10 -105 16 -20 21 -21 42
-10 27 14 69 60 70 76 0 5 25 36 55 67 l55 57 0 85 c0 73 -3 90 -22 116 -28
38 -96 79 -130 79 -24 0 -118 -64 -118 -81 0 -5 -7 -9 -15 -9 -20 0 -19 -26 2
-34 11 -4 35 6 68 29 28 19 59 35 69 35 86 0 139 -148 84 -230 -30 -44 -44
-47 -62 -12 -8 15 -21 34 -30 41 -13 11 -13 17 0 54 14 40 14 42 -8 59 -30 23
-41 22 -63 -2 -14 -15 -17 -30 -12 -67 5 -44 2 -53 -37 -108 -48 -70 -80 -82
-96 -39 -12 29 -10 32 22 48 33 17 67 72 61 99 -15 59 -65 65 -111 12 -35 -39
-47 -85 -39 -151 5 -50 -5 -54 -35 -13 -16 21 -17 33 -8 99 5 41 10 100 10
131 l0 57 63 40 c96 63 140 113 143 162 3 58 -15 52 -94 -28z"/>
<path d="M381 1549 c-95 -38 -211 -143 -211 -190 0 -25 27 -24 35 1 10 32 102
107 152 124 114 39 188 2 208 -105 9 -48 -11 -91 -74 -163 -46 -54 -63 -86
-43 -86 4 0 36 17 72 38 108 63 136 131 105 252 -19 73 -34 94 -87 121 -40 20
-116 24 -157 8z"/>
<path d="M383 1428 c-40 -50 -51 -102 -63 -307 -6 -100 -13 -150 -29 -189 -27
-68 -28 -102 -2 -102 11 0 22 6 25 13 5 9 7 9 12 0 3 -7 14 -13 25 -13 17 0
19 8 19 95 0 80 6 115 35 213 19 64 37 140 40 167 11 85 -29 164 -62 123z"/>
</g>
</svg>
